<svg id="sw-js-blob-svg" viewBox="0 0 100 100" xmlns="http://www.w3.org/2000/svg">
  <defs>
    <linearGradient id="sw-gradient" x1="0" x2="1" y1="1" y2="0">
      <stop id="stop1" stop-color="rgba(0, 0, 0, 1)" offset="0%"></stop>
      <stop id="stop2" stop-color="rgba(81.32, 144.694, 30.408, 1)" offset="100%"></stop>
    </linearGradient>
  </defs>
  <path fill="none" d="M18,-31.9C24.3,-27.5,31.2,-24.7,33.6,-19.7C36,-14.6,33.9,-7.3,34.2,0.2C34.6,7.7,37.3,15.4,35.1,20.7C32.9,26,25.6,28.9,18.9,33C12.2,37,6.1,42.2,0.6,41.3C-5,40.3,-10,33.1,-15.8,28.6C-21.6,24,-28.3,22.1,-33.8,17.8C-39.4,13.4,-43.8,6.7,-42.5,0.8C-41.2,-5.2,-34.2,-10.4,-29.1,-15.6C-24,-20.7,-20.9,-25.7,-16.3,-31.2C-11.8,-36.6,-5.9,-42.5,0,-42.5C5.8,-42.4,11.7,-36.3,18,-31.9Z" width="100%" height="100%" transform="translate(50 50)" stroke-width="1" style="transition: all 0.3s ease 0s;" stroke="url(#sw-gradient)"></path>
</svg>